<?xml version="1.0" encoding="utf-8" ?>
<svg baseProfile="full" height="400" version="1.1" width="600" xmlns="http://www.w3.org/2000/svg" xmlns:ev="http://www.w3.org/2001/xml-events" xmlns:xlink="http://www.w3.org/1999/xlink"><defs /><rect fill="white" height="400" width="600" x="0" y="0" /><line stroke="rgb(0%,0%,0%)" x1="0" x2="50" y1="50" y2="50" /><line stroke="rgb(0%,0%,0%)" x1="50" x2="50" y1="50" y2="100" /><line stroke="rgb(0%,0%,0%)" x1="50" x2="0" y1="100" y2="100" /><line stroke="rgb(0%,0%,0%)" x1="0" x2="0" y1="100" y2="50" /><text fill="red" x="15" y="80">WA</text><line stroke="rgb(0%,0%,0%)" x1="450" x2="500" y1="50" y2="50" /><line stroke="rgb(0%,0%,0%)" x1="500" x2="500" y1="50" y2="100" /><line stroke="rgb(0%,0%,0%)" x1="500" x2="450" y1="100" y2="100" /><line stroke="rgb(0%,0%,0%)" x1="450" x2="450" y1="100" y2="50" /><text fill="red" x="465" y="80">VT</text><line stroke="rgb(0%,0%,0%)" x1="500" x2="550" y1="50" y2="50" /><line stroke="rgb(0%,0%,0%)" x1="550" x2="550" y1="50" y2="100" /><line stroke="rgb(0%,0%,0%)" x1="550" x2="500" y1="100" y2="100" /><line stroke="rgb(0%,0%,0%)" x1="500" x2="500" y1="100" y2="50" /><text fill="red" x="515" y="80">NH</text><line stroke="rgb(0%,0%,0%)" x1="550" x2="600" y1="50" y2="50" /><line stroke="rgb(0%,0%,0%)" x1="600" x2="600" y1="50" y2="100" /><line stroke="rgb(0%,0%,0%)" x1="600" x2="550" y1="100" y2="100" /><line stroke="rgb(0%,0%,0%)" x1="550" x2="550" y1="100" y2="50" /><text fill="red" x="565" y="80">ME</text><line stroke="rgb(0%,0%,0%)" x1="0" x2="50" y1="100" y2="100" /><line stroke="rgb(0%,0%,0%)" x1="50" x2="50" y1="100" y2="150" /><line stroke="rgb(0%,0%,0%)" x1="50" x2="0" y1="150" y2="150" /><line stroke="rgb(0%,0%,0%)" x1="0" x2="0" y1="150" y2="100" /><text fill="red" x="15" y="130">OR</text><line stroke="rgb(0%,0%,0%)" x1="50" x2="100" y1="100" y2="100" /><line stroke="rgb(0%,0%,0%)" x1="100" x2="100" y1="100" y2="150" /><line stroke="rgb(0%,0%,0%)" x1="100" x2="50" y1="150" y2="150" /><line stroke="rgb(0%,0%,0%)" x1="50" x2="50" y1="150" y2="100" /><text fill="red" x="65" y="130">ID</text><line stroke="rgb(0%,0%,0%)" x1="100" x2="150" y1="100" y2="100" /><line stroke="rgb(0%,0%,0%)" x1="150" x2="150" y1="100" y2="150" /><line stroke="rgb(0%,0%,0%)" x1="150" x2="100" y1="150" y2="150" /><line stroke="rgb(0%,0%,0%)" x1="100" x2="100" y1="150" y2="100" /><text fill="red" x="115" y="130">MT</text><line stroke="rgb(0%,0%,0%)" x1="150" x2="200" y1="100" y2="100" /><line stroke="rgb(0%,0%,0%)" x1="200" x2="200" y1="100" y2="150" /><line stroke="rgb(0%,0%,0%)" x1="200" x2="150" y1="150" y2="150" /><line stroke="rgb(0%,0%,0%)" x1="150" x2="150" y1="150" y2="100" /><text fill="red" x="165" y="130">ND</text><line stroke="rgb(0%,0%,0%)" x1="200" x2="250" y1="100" y2="100" /><line stroke="rgb(0%,0%,0%)" x1="250" x2="250" y1="100" y2="150" /><line stroke="rgb(0%,0%,0%)" x1="250" x2="200" y1="150" y2="150" /><line stroke="rgb(0%,0%,0%)" x1="200" x2="200" y1="150" y2="100" /><text fill="red" x="215" y="130">MN</text><line stroke="rgb(0%,0%,0%)" x1="250" x2="300" y1="100" y2="100" /><line stroke="rgb(0%,0%,0%)" x1="300" x2="300" y1="100" y2="150" /><line stroke="rgb(0%,0%,0%)" x1="300" x2="250" y1="150" y2="150" /><line stroke="rgb(0%,0%,0%)" x1="250" x2="250" y1="150" y2="100" /><text fill="red" x="265" y="130">WI</text><line stroke="rgb(0%,0%,0%)" x1="300" x2="350" y1="100" y2="100" /><line stroke="rgb(0%,0%,0%)" x1="350" x2="350" y1="100" y2="150" /><line stroke="rgb(0%,0%,0%)" x1="350" x2="300" y1="150" y2="150" /><line stroke="rgb(0%,0%,0%)" x1="300" x2="300" y1="150" y2="100" /><text fill="red" x="315" y="130">MI</text><line stroke="rgb(0%,0%,0%)" x1="400" x2="450" y1="100" y2="100" /><line stroke="rgb(0%,0%,0%)" x1="450" x2="450" y1="100" y2="150" /><line stroke="rgb(0%,0%,0%)" x1="450" x2="400" y1="150" y2="150" /><line stroke="rgb(0%,0%,0%)" x1="400" x2="400" y1="150" y2="100" /><text fill="red" x="415" y="130">NY</text><line stroke="rgb(0%,0%,0%)" x1="450" x2="500" y1="100" y2="100" /><line stroke="rgb(0%,0%,0%)" x1="500" x2="500" y1="100" y2="150" /><line stroke="rgb(0%,0%,0%)" x1="500" x2="450" y1="150" y2="150" /><line stroke="rgb(0%,0%,0%)" x1="450" x2="450" y1="150" y2="100" /><text fill="red" x="465" y="130">MA</text><line stroke="rgb(0%,0%,0%)" x1="500" x2="550" y1="100" y2="100" /><line stroke="rgb(0%,0%,0%)" x1="550" x2="550" y1="100" y2="150" /><line stroke="rgb(0%,0%,0%)" x1="550" x2="500" y1="150" y2="150" /><line stroke="rgb(0%,0%,0%)" x1="500" x2="500" y1="150" y2="100" /><text fill="red" x="515" y="130">RI</text><line stroke="rgb(0%,0%,0%)" x1="0" x2="50" y1="150" y2="150" /><line stroke="rgb(0%,0%,0%)" x1="50" x2="50" y1="150" y2="200" /><line stroke="rgb(0%,0%,0%)" x1="50" x2="0" y1="200" y2="200" /><line stroke="rgb(0%,0%,0%)" x1="0" x2="0" y1="200" y2="150" /><text fill="red" x="15" y="180">CA</text><line stroke="rgb(0%,0%,0%)" x1="50" x2="100" y1="150" y2="150" /><line stroke="rgb(0%,0%,0%)" x1="100" x2="100" y1="150" y2="200" /><line stroke="rgb(0%,0%,0%)" x1="100" x2="50" y1="200" y2="200" /><line stroke="rgb(0%,0%,0%)" x1="50" x2="50" y1="200" y2="150" /><text fill="red" x="65" y="180">NV</text><line stroke="rgb(0%,0%,0%)" x1="100" x2="150" y1="150" y2="150" /><line stroke="rgb(0%,0%,0%)" x1="150" x2="150" y1="150" y2="200" /><line stroke="rgb(0%,0%,0%)" x1="150" x2="100" y1="200" y2="200" /><line stroke="rgb(0%,0%,0%)" x1="100" x2="100" y1="200" y2="150" /><text fill="red" x="115" y="180">WY</text><line stroke="rgb(0%,0%,0%)" x1="150" x2="200" y1="150" y2="150" /><line stroke="rgb(0%,0%,0%)" x1="200" x2="200" y1="150" y2="200" /><line stroke="rgb(0%,0%,0%)" x1="200" x2="150" y1="200" y2="200" /><line stroke="rgb(0%,0%,0%)" x1="150" x2="150" y1="200" y2="150" /><text fill="red" x="165" y="180">SD</text><line stroke="rgb(0%,0%,0%)" x1="200" x2="250" y1="150" y2="150" /><line stroke="rgb(0%,0%,0%)" x1="250" x2="250" y1="150" y2="200" /><line stroke="rgb(0%,0%,0%)" x1="250" x2="200" y1="200" y2="200" /><line stroke="rgb(0%,0%,0%)" x1="200" x2="200" y1="200" y2="150" /><text fill="red" x="215" y="180">IA</text><line stroke="rgb(0%,0%,0%)" x1="250" x2="300" y1="150" y2="150" /><line stroke="rgb(0%,0%,0%)" x1="300" x2="300" y1="150" y2="200" /><line stroke="rgb(0%,0%,0%)" x1="300" x2="250" y1="200" y2="200" /><line stroke="rgb(0%,0%,0%)" x1="250" x2="250" y1="200" y2="150" /><text fill="red" x="265" y="180">IL</text><line stroke="rgb(0%,0%,0%)" x1="300" x2="350" y1="150" y2="150" /><line stroke="rgb(0%,0%,0%)" x1="350" x2="350" y1="150" y2="200" /><line stroke="rgb(0%,0%,0%)" x1="350" x2="300" y1="200" y2="200" /><line stroke="rgb(0%,0%,0%)" x1="300" x2="300" y1="200" y2="150" /><text fill="red" x="315" y="180">IN</text><line stroke="rgb(0%,0%,0%)" x1="350" x2="400" y1="150" y2="150" /><line stroke="rgb(0%,0%,0%)" x1="400" x2="400" y1="150" y2="200" /><line stroke="rgb(0%,0%,0%)" x1="400" x2="350" y1="200" y2="200" /><line stroke="rgb(0%,0%,0%)" x1="350" x2="350" y1="200" y2="150" /><text fill="red" x="365" y="180">OH</text><line stroke="rgb(0%,0%,0%)" x1="400" x2="450" y1="150" y2="150" /><line stroke="rgb(0%,0%,0%)" x1="450" x2="450" y1="150" y2="200" /><line stroke="rgb(0%,0%,0%)" x1="450" x2="400" y1="200" y2="200" /><line stroke="rgb(0%,0%,0%)" x1="400" x2="400" y1="200" y2="150" /><text fill="red" x="415" y="180">PA</text><line stroke="rgb(0%,0%,0%)" x1="450" x2="500" y1="150" y2="150" /><line stroke="rgb(0%,0%,0%)" x1="500" x2="500" y1="150" y2="200" /><line stroke="rgb(0%,0%,0%)" x1="500" x2="450" y1="200" y2="200" /><line stroke="rgb(0%,0%,0%)" x1="450" x2="450" y1="200" y2="150" /><text fill="red" x="465" y="180">NJ</text><line stroke="rgb(0%,0%,0%)" x1="500" x2="550" y1="150" y2="150" /><line stroke="rgb(0%,0%,0%)" x1="550" x2="550" y1="150" y2="200" /><line stroke="rgb(0%,0%,0%)" x1="550" x2="500" y1="200" y2="200" /><line stroke="rgb(0%,0%,0%)" x1="500" x2="500" y1="200" y2="150" /><text fill="red" x="515" y="180">CT</text><line stroke="rgb(0%,0%,0%)" x1="50" x2="100" y1="200" y2="200" /><line stroke="rgb(0%,0%,0%)" x1="100" x2="100" y1="200" y2="250" /><line stroke="rgb(0%,0%,0%)" x1="100" x2="50" y1="250" y2="250" /><line stroke="rgb(0%,0%,0%)" x1="50" x2="50" y1="250" y2="200" /><text fill="red" x="65" y="230">UT</text><line stroke="rgb(0%,0%,0%)" x1="100" x2="150" y1="200" y2="200" /><line stroke="rgb(0%,0%,0%)" x1="150" x2="150" y1="200" y2="250" /><line stroke="rgb(0%,0%,0%)" x1="150" x2="100" y1="250" y2="250" /><line stroke="rgb(0%,0%,0%)" x1="100" x2="100" y1="250" y2="200" /><text fill="red" x="115" y="230">CO</text><line stroke="rgb(0%,0%,0%)" x1="150" x2="200" y1="200" y2="200" /><line stroke="rgb(0%,0%,0%)" x1="200" x2="200" y1="200" y2="250" /><line stroke="rgb(0%,0%,0%)" x1="200" x2="150" y1="250" y2="250" /><line stroke="rgb(0%,0%,0%)" x1="150" x2="150" y1="250" y2="200" /><text fill="red" x="165" y="230">NE</text><line stroke="rgb(0%,0%,0%)" x1="200" x2="250" y1="200" y2="200" /><line stroke="rgb(0%,0%,0%)" x1="250" x2="250" y1="200" y2="250" /><line stroke="rgb(0%,0%,0%)" x1="250" x2="200" y1="250" y2="250" /><line stroke="rgb(0%,0%,0%)" x1="200" x2="200" y1="250" y2="200" /><text fill="red" x="215" y="230">MO</text><line stroke="rgb(0%,0%,0%)" x1="250" x2="300" y1="200" y2="200" /><line stroke="rgb(0%,0%,0%)" x1="300" x2="300" y1="200" y2="250" /><line stroke="rgb(0%,0%,0%)" x1="300" x2="250" y1="250" y2="250" /><line stroke="rgb(0%,0%,0%)" x1="250" x2="250" y1="250" y2="200" /><text fill="red" x="265" y="230">TN</text><line stroke="rgb(0%,0%,0%)" x1="300" x2="350" y1="200" y2="200" /><line stroke="rgb(0%,0%,0%)" x1="350" x2="350" y1="200" y2="250" /><line stroke="rgb(0%,0%,0%)" x1="350" x2="300" y1="250" y2="250" /><line stroke="rgb(0%,0%,0%)" x1="300" x2="300" y1="250" y2="200" /><text fill="red" x="315" y="230">WV</text><line stroke="rgb(0%,0%,0%)" x1="350" x2="400" y1="200" y2="200" /><line stroke="rgb(0%,0%,0%)" x1="400" x2="400" y1="200" y2="250" /><line stroke="rgb(0%,0%,0%)" x1="400" x2="350" y1="250" y2="250" /><line stroke="rgb(0%,0%,0%)" x1="350" x2="350" y1="250" y2="200" /><text fill="red" x="365" y="230">DC</text><line stroke="rgb(0%,0%,0%)" x1="400" x2="450" y1="200" y2="200" /><line stroke="rgb(0%,0%,0%)" x1="450" x2="450" y1="200" y2="250" /><line stroke="rgb(0%,0%,0%)" x1="450" x2="400" y1="250" y2="250" /><line stroke="rgb(0%,0%,0%)" x1="400" x2="400" y1="250" y2="200" /><text fill="red" x="415" y="230">MD</text><line stroke="rgb(0%,0%,0%)" x1="450" x2="500" y1="200" y2="200" /><line stroke="rgb(0%,0%,0%)" x1="500" x2="500" y1="200" y2="250" /><line stroke="rgb(0%,0%,0%)" x1="500" x2="450" y1="250" y2="250" /><line stroke="rgb(0%,0%,0%)" x1="450" x2="450" y1="250" y2="200" /><text fill="red" x="465" y="230">DE</text><line stroke="rgb(0%,0%,0%)" x1="50" x2="100" y1="250" y2="250" /><line stroke="rgb(0%,0%,0%)" x1="100" x2="100" y1="250" y2="300" /><line stroke="rgb(0%,0%,0%)" x1="100" x2="50" y1="300" y2="300" /><line stroke="rgb(0%,0%,0%)" x1="50" x2="50" y1="300" y2="250" /><text fill="red" x="65" y="280">AZ</text><line stroke="rgb(0%,0%,0%)" x1="100" x2="150" y1="250" y2="250" /><line stroke="rgb(0%,0%,0%)" x1="150" x2="150" y1="250" y2="300" /><line stroke="rgb(0%,0%,0%)" x1="150" x2="100" y1="300" y2="300" /><line stroke="rgb(0%,0%,0%)" x1="100" x2="100" y1="300" y2="250" /><text fill="red" x="115" y="280">NM</text><line stroke="rgb(0%,0%,0%)" x1="150" x2="200" y1="250" y2="250" /><line stroke="rgb(0%,0%,0%)" x1="200" x2="200" y1="250" y2="300" /><line stroke="rgb(0%,0%,0%)" x1="200" x2="150" y1="300" y2="300" /><line stroke="rgb(0%,0%,0%)" x1="150" x2="150" y1="300" y2="250" /><text fill="red" x="165" y="280">KS</text><line stroke="rgb(0%,0%,0%)" x1="200" x2="250" y1="250" y2="250" /><line stroke="rgb(0%,0%,0%)" x1="250" x2="250" y1="250" y2="300" /><line stroke="rgb(0%,0%,0%)" x1="250" x2="200" y1="300" y2="300" /><line stroke="rgb(0%,0%,0%)" x1="200" x2="200" y1="300" y2="250" /><text fill="red" x="215" y="280">AR</text><line stroke="rgb(0%,0%,0%)" x1="250" x2="300" y1="250" y2="250" /><line stroke="rgb(0%,0%,0%)" x1="300" x2="300" y1="250" y2="300" /><line stroke="rgb(0%,0%,0%)" x1="300" x2="250" y1="300" y2="300" /><line stroke="rgb(0%,0%,0%)" x1="250" x2="250" y1="300" y2="250" /><text fill="red" x="265" y="280">MS</text><line stroke="rgb(0%,0%,0%)" x1="300" x2="350" y1="250" y2="250" /><line stroke="rgb(0%,0%,0%)" x1="350" x2="350" y1="250" y2="300" /><line stroke="rgb(0%,0%,0%)" x1="350" x2="300" y1="300" y2="300" /><line stroke="rgb(0%,0%,0%)" x1="300" x2="300" y1="300" y2="250" /><text fill="red" x="315" y="280">KY</text><line stroke="rgb(0%,0%,0%)" x1="350" x2="400" y1="250" y2="250" /><line stroke="rgb(0%,0%,0%)" x1="400" x2="400" y1="250" y2="300" /><line stroke="rgb(0%,0%,0%)" x1="400" x2="350" y1="300" y2="300" /><line stroke="rgb(0%,0%,0%)" x1="350" x2="350" y1="300" y2="250" /><text fill="red" x="365" y="280">VA</text><line stroke="rgb(0%,0%,0%)" x1="400" x2="450" y1="250" y2="250" /><line stroke="rgb(0%,0%,0%)" x1="450" x2="450" y1="250" y2="300" /><line stroke="rgb(0%,0%,0%)" x1="450" x2="400" y1="300" y2="300" /><line stroke="rgb(0%,0%,0%)" x1="400" x2="400" y1="300" y2="250" /><text fill="red" x="415" y="280">NC</text><line stroke="rgb(0%,0%,0%)" x1="150" x2="200" y1="300" y2="300" /><line stroke="rgb(0%,0%,0%)" x1="200" x2="200" y1="300" y2="350" /><line stroke="rgb(0%,0%,0%)" x1="200" x2="150" y1="350" y2="350" /><line stroke="rgb(0%,0%,0%)" x1="150" x2="150" y1="350" y2="300" /><text fill="red" x="165" y="330">OK</text><line stroke="rgb(0%,0%,0%)" x1="200" x2="250" y1="300" y2="300" /><line stroke="rgb(0%,0%,0%)" x1="250" x2="250" y1="300" y2="350" /><line stroke="rgb(0%,0%,0%)" x1="250" x2="200" y1="350" y2="350" /><line stroke="rgb(0%,0%,0%)" x1="200" x2="200" y1="350" y2="300" /><text fill="red" x="215" y="330">LA</text><line stroke="rgb(0%,0%,0%)" x1="300" x2="350" y1="300" y2="300" /><line stroke="rgb(0%,0%,0%)" x1="350" x2="350" y1="300" y2="350" /><line stroke="rgb(0%,0%,0%)" x1="350" x2="300" y1="350" y2="350" /><line stroke="rgb(0%,0%,0%)" x1="300" x2="300" y1="350" y2="300" /><text fill="red" x="315" y="330">AL</text><line stroke="rgb(0%,0%,0%)" x1="350" x2="400" y1="300" y2="300" /><line stroke="rgb(0%,0%,0%)" x1="400" x2="400" y1="300" y2="350" /><line stroke="rgb(0%,0%,0%)" x1="400" x2="350" y1="350" y2="350" /><line stroke="rgb(0%,0%,0%)" x1="350" x2="350" y1="350" y2="300" /><text fill="red" x="365" y="330">GA</text><line stroke="rgb(0%,0%,0%)" x1="400" x2="450" y1="300" y2="300" /><line stroke="rgb(0%,0%,0%)" x1="450" x2="450" y1="300" y2="350" /><line stroke="rgb(0%,0%,0%)" x1="450" x2="400" y1="350" y2="350" /><line stroke="rgb(0%,0%,0%)" x1="400" x2="400" y1="350" y2="300" /><text fill="red" x="415" y="330">SC</text><line stroke="rgb(0%,0%,0%)" x1="0" x2="50" y1="350" y2="350" /><line stroke="rgb(0%,0%,0%)" x1="50" x2="50" y1="350" y2="400" /><line stroke="rgb(0%,0%,0%)" x1="50" x2="0" y1="400" y2="400" /><line stroke="rgb(0%,0%,0%)" x1="0" x2="0" y1="400" y2="350" /><text fill="red" x="15" y="380">AK</text><line stroke="rgb(0%,0%,0%)" x1="50" x2="100" y1="350" y2="350" /><line stroke="rgb(0%,0%,0%)" x1="100" x2="100" y1="350" y2="400" /><line stroke="rgb(0%,0%,0%)" x1="100" x2="50" y1="400" y2="400" /><line stroke="rgb(0%,0%,0%)" x1="50" x2="50" y1="400" y2="350" /><text fill="red" x="65" y="380">HI</text><line stroke="rgb(0%,0%,0%)" x1="150" x2="200" y1="350" y2="350" /><line stroke="rgb(0%,0%,0%)" x1="200" x2="200" y1="350" y2="400" /><line stroke="rgb(0%,0%,0%)" x1="200" x2="150" y1="400" y2="400" /><line stroke="rgb(0%,0%,0%)" x1="150" x2="150" y1="400" y2="350" /><text fill="red" x="165" y="380">TX</text><line stroke="rgb(0%,0%,0%)" x1="450" x2="500" y1="350" y2="350" /><line stroke="rgb(0%,0%,0%)" x1="500" x2="500" y1="350" y2="400" /><line stroke="rgb(0%,0%,0%)" x1="500" x2="450" y1="400" y2="400" /><line stroke="rgb(0%,0%,0%)" x1="450" x2="450" y1="400" y2="350" /><text fill="red" x="465" y="380">FL</text></svg>